<mxfile host="65bd71144e">
    <diagram id="0zwxAkRgAh-RAVEQhXCy" name="第 1 页">
        <mxGraphModel dx="848" dy="459" grid="0" gridSize="10" guides="1" tooltips="1" connect="1" arrows="1" fold="1" page="1" pageScale="1" pageWidth="827" pageHeight="1169" background="#FFFFFF" math="0" shadow="0">
            <root>
                <mxCell id="0"/>
                <mxCell id="1" parent="0"/>
                <mxCell id="13" style="edgeStyle=none;html=1;fontSize=17;fontColor=#1A1A1A;strokeColor=#1A1A1A;" parent="1" edge="1">
                    <mxGeometry relative="1" as="geometry">
                        <mxPoint x="545" y="229" as="targetPoint"/>
                        <mxPoint x="545" y="229" as="sourcePoint"/>
                    </mxGeometry>
                </mxCell>
                <mxCell id="7" value="" style="rounded=0;whiteSpace=wrap;html=1;fontColor=#1A1A1A;strokeColor=#1A1A1A;fillColor=#FFFFFF;fontSize=13;" parent="1" vertex="1">
                    <mxGeometry x="318" y="76" width="460" height="231" as="geometry"/>
                </mxCell>
                <mxCell id="9" style="edgeStyle=none;html=1;exitX=1;exitY=0.5;exitDx=0;exitDy=0;entryX=0;entryY=0.5;entryDx=0;entryDy=0;fontColor=#1A1A1A;strokeColor=#1A1A1A;fontSize=13;" parent="1" source="2" target="3" edge="1">
                    <mxGeometry relative="1" as="geometry"/>
                </mxCell>
                <mxCell id="2" value="Component" style="rounded=1;whiteSpace=wrap;html=1;fillColor=#FFFFFF;strokeColor=#1A1A1A;fontColor=#1A1A1A;fontSize=13;" parent="1" vertex="1">
                    <mxGeometry x="28" y="151" width="120" height="60" as="geometry"/>
                </mxCell>
                <mxCell id="10" style="edgeStyle=none;html=1;exitX=1;exitY=0.5;exitDx=0;exitDy=0;entryX=0;entryY=0.5;entryDx=0;entryDy=0;fontColor=#1A1A1A;strokeColor=#1A1A1A;fontSize=13;" parent="1" source="3" target="4" edge="1">
                    <mxGeometry relative="1" as="geometry"/>
                </mxCell>
                <mxCell id="3" value="componentDidMount&lt;br style=&quot;font-size: 13px&quot;&gt;调用映射的方法" style="rounded=1;whiteSpace=wrap;html=1;fontColor=#1A1A1A;strokeColor=#1A1A1A;fillColor=#FFFFFF;fontSize=13;" parent="1" vertex="1">
                    <mxGeometry x="163" y="151" width="143" height="61" as="geometry"/>
                </mxCell>
                <mxCell id="11" style="edgeStyle=none;html=1;exitX=1;exitY=0.5;exitDx=0;exitDy=0;fontColor=#1A1A1A;strokeColor=#1A1A1A;fontSize=13;" parent="1" source="4" target="5" edge="1">
                    <mxGeometry relative="1" as="geometry"/>
                </mxCell>
                <mxCell id="4" value="dispatch actions" style="rounded=1;whiteSpace=wrap;html=1;fontColor=#1A1A1A;strokeColor=#1A1A1A;fillColor=#FFFFFF;fontSize=13;" parent="1" vertex="1">
                    <mxGeometry x="331" y="152" width="120" height="60" as="geometry"/>
                </mxCell>
                <mxCell id="12" style="edgeStyle=none;html=1;exitX=1;exitY=0.5;exitDx=0;exitDy=0;entryX=0;entryY=0.5;entryDx=0;entryDy=0;fontColor=#1A1A1A;strokeColor=#1A1A1A;fontSize=13;" parent="1" source="5" target="6" edge="1">
                    <mxGeometry relative="1" as="geometry"/>
                </mxCell>
                <mxCell id="5" value="reducer函数进行处理" style="rounded=1;whiteSpace=wrap;html=1;fontColor=#1A1A1A;strokeColor=#1A1A1A;fillColor=#FFFFFF;fontSize=13;" parent="1" vertex="1">
                    <mxGeometry x="478" y="152" width="120" height="60" as="geometry"/>
                </mxCell>
                <mxCell id="6" value="修改store里的state" style="rounded=1;whiteSpace=wrap;html=1;fontColor=#1A1A1A;strokeColor=#1A1A1A;fillColor=#FFFFFF;fontSize=13;" parent="1" vertex="1">
                    <mxGeometry x="625" y="152" width="120" height="60" as="geometry"/>
                </mxCell>
                <mxCell id="8" value="&lt;font style=&quot;font-size: 17px&quot;&gt;redux&lt;/font&gt;" style="text;html=1;strokeColor=none;fillColor=none;align=center;verticalAlign=middle;whiteSpace=wrap;rounded=0;fontColor=#1A1A1A;fontSize=13;" parent="1" vertex="1">
                    <mxGeometry x="508" y="98" width="60" height="30" as="geometry"/>
                </mxCell>
                <mxCell id="14" value="发送网络请求等操作" style="rounded=1;whiteSpace=wrap;html=1;fontSize=17;fontColor=#1A1A1A;strokeColor=#1A1A1A;fillColor=#FFFFFF;" parent="1" vertex="1">
                    <mxGeometry x="407" y="235" width="120" height="60" as="geometry"/>
                </mxCell>
                <mxCell id="16" value="" style="endArrow=classic;html=1;exitX=0.5;exitY=0;exitDx=0;exitDy=0;strokeColor=#1A1A1A;" edge="1" parent="1" source="14">
                    <mxGeometry width="50" height="50" relative="1" as="geometry">
                        <mxPoint x="416" y="232" as="sourcePoint"/>
                        <mxPoint x="466" y="182" as="targetPoint"/>
                    </mxGeometry>
                </mxCell>
                <mxCell id="17" value="利用中间件来完成需求" style="text;html=1;strokeColor=none;fillColor=none;align=center;verticalAlign=middle;whiteSpace=wrap;rounded=0;fontColor=#1A1A1A;fontSize=15;" vertex="1" parent="1">
                    <mxGeometry x="81" y="321" width="94" height="42" as="geometry"/>
                </mxCell>
            </root>
        </mxGraphModel>
    </diagram>
</mxfile>